<svg xmlns="http://www.w3.org/2000/svg" version="1.1" xmlns:xlink="http://www.w3.org/1999/xlink" width="40" height="43"><svg width="40" height="43" viewBox="0 0 403.009 430" xmlns="http://www.w3.org/2000/svg" fill="currentColor" aria-hidden="true">
  <path d="M328.728,85.458c-14.258,3.884-27.619,10.431-41.136,16.405c-13.517,5.974-27.491,11.461-42.187,13.018
    c-7.95,0.842-16.165,0.365-23.889-1.645V82.921c4.859-1.56,8.399-6.062,8.399-11.44v-3.388c0-6.666-5.404-12.069-12.069-12.069
    h-12.272c1.527-12.248,2.863-24.517,3.861-36.823c0.319-3.93,0.524-8.195-1.663-11.476c-2.607-3.91-7.708-5.134-12.335-5.958
    c-20.221-3.598-35.891-0.558-56.428-0.749c-4.533-0.042-9.158,0.014-13.452,1.469c-4.294,1.455-8.268,4.551-9.651,8.868
    c-1.112,3.47-0.448,7.23,0.225,10.811c2.216,11.797,3.764,22.913,5.144,33.856h-16.92c-6.665,0-12.069,5.404-12.069,12.069v3.388
    c0,5.377,3.541,9.879,8.399,11.44v84.543L0,240.615l53.951,166.044C58.473,420.577,71.443,430,86.077,430h150.046
    c14.634,0,27.604-9.423,32.127-23.341l53.951-166.044l-100.685-73.151v-19.582c12.145,13.987,32.151,19.286,50.602,17.438
    c18.58-1.861,35.925-10.007,52.242-19.087c11.111-6.183,22.236-12.967,34.725-15.356c12.49-2.388,26.964,0.661,34.419,10.962
    c3.168-17.094,6.337-34.189,9.505-51.283C379.825,80.427,353.139,78.808,328.728,85.458z"></path>
</svg><style>@media (prefers-color-scheme: light) { :root { filter: none; } }
@media (prefers-color-scheme: dark) { :root { filter: invert(100%); } }
</style></svg>