<?xml version="1.0" encoding="UTF-8"?>
<svg id="Layer_1" xmlns="http://www.w3.org/2000/svg" version="1.1" viewBox="0 0 403.01 430">
  <!-- Generator: Adobe Illustrator 29.6.1, SVG Export Plug-In . SVG Version: 2.1.1 Build 9)  -->
  <defs>
    <style>
      .st0 {
        fill: #ed3293;
      }

      .st0, .st1 {
        stroke: #000;
        stroke-miterlimit: 10;
        stroke-width: 12px;
      }

      .st1 {
        fill: none;
      }

      .st2 {
        fill: #fff;
        isolation: isolate;
        opacity: .85;
      }
    </style>
  </defs>
  <g id="potion-fill-layer">
    <polygon id="potion-fill" class="st2" points="0 430 403.01 430 403.01 430 0 430"/>
  </g>
  <g id="potion-bottle-pattern-7">
    <path class="st1" d="M328.73,85.46c-14.26,3.88-27.62,10.43-41.14,16.4-13.52,5.97-27.49,11.46-42.19,13.02-7.95.84-16.16.36-23.89-1.64v-30.32c4.86-1.56,8.4-6.06,8.4-11.44v-3.39c0-6.67-5.4-12.07-12.07-12.07h-12.27c1.53-12.25,2.86-24.52,3.86-36.82.32-3.93.52-8.19-1.66-11.48-2.61-3.91-7.71-5.13-12.34-5.96-20.22-3.6-35.89-.56-56.43-.75-4.53-.04-9.16.01-13.45,1.47-4.29,1.45-8.27,4.55-9.65,8.87-1.11,3.47-.45,7.23.22,10.81,2.22,11.8,3.76,22.91,5.14,33.86h-16.92c-6.67,0-12.07,5.4-12.07,12.07v3.39c0,5.38,3.54,9.88,8.4,11.44v84.54L0,240.62l53.95,166.04c4.52,13.92,17.49,23.34,32.13,23.34h150.05c14.63,0,27.6-9.42,32.13-23.34l53.95-166.04-100.68-73.15v-19.58c12.15,13.99,32.15,19.29,50.6,17.44,18.58-1.86,35.92-10.01,52.24-19.09,11.11-6.18,22.24-12.97,34.73-15.36,12.49-2.39,26.96.66,34.42,10.96,3.17-17.09,6.34-34.19,9.51-51.28-23.18-10.13-49.87-11.75-74.28-5.1Z"/>
  </g>
  <path class="st1" d="M88,264"/>
  <path class="st1" d="M130,210"/>
  <path class="st1" d="M66.22,225.31"/>
  <g id="potion-bottle-pattern-71" data-name="potion-bottle-pattern-7">
    <path class="st0" d="M0,246.93l53.95,166.04c4.52,13.92,17.49,23.34,32.13,23.34h150.05c14.63,0,27.6-9.42,32.13-23.34l53.95-166.04-81.52,10.88c-24-3.79-48-7.59-72-11.39-17,2.13-34,4.26-51,6.39l-60,6L0,246.93Z"/>
  </g>
  <path class="st1" d="M414,196"/>
</svg>