<?xml version="1.0" encoding="iso-8859-1"?>
<!-- Generator: Adobe Illustrator 19.0.0, SVG Export Plug-In . SVG Version: 6.00 Build 0)  -->
<svg version="1.1" xmlns="http://www.w3.org/2000/svg" xmlns:xlink="http://www.w3.org/1999/xlink" x="0px" y="0px"
	 viewBox="0 0 290.878 430" style="enable-background:new 0 0 290.878 430;" xml:space="preserve">
<g id="potion-bottle-pattern-4">
	<path d="M191.554,146.63v-34.671c4.248-2.667,7.095-7.359,7.095-12.744v-19.51c0-8.326-6.75-15.076-15.076-15.076h-3.624
		c2.016-13.885,4.033-27.77,6.049-41.655c0.408-2.807,0.806-5.733-0.079-8.428c-1.714-5.222-7.501-7.781-12.764-9.365
		c-18.227-5.485-37.742-6.639-56.488-3.343c-4.268,0.751-8.992,2.082-11.099,5.868c-1.749,3.144-1.131,7.018-0.464,10.553
		c2.915,15.456,5.83,30.913,8.745,46.369h-6.542c-8.326,0-15.076,6.75-15.076,15.076v19.51c0,5.386,2.846,10.078,7.095,12.744
		v34.671C41.614,165.918,0,220.362,0,284.561C0,364.885,65.115,430,145.439,430s145.439-65.115,145.439-145.439
		C290.878,220.362,249.265,165.918,191.554,146.63z"/>
</g>
<g id="Layer_1">
</g>
</svg>
